<svg id="Layer_1" data-name="Layer 1" xmlns="http://www.w3.org/2000/svg" viewBox="0 0 87.56 9.91">
    <defs>
        <style>
            .cls-1 {
                fill: #474748;
            }
        </style>
    </defs>
    <path class="cls-1"
        d="M22,9a3.59,3.59,0,0,0,2.8-1.59,1.67,1.67,0,0,0,1.29,1.71,1.38,1.38,0,0,0,1.68-.93,1,1,0,0,0-.06-.75c-.08-.18-.07-.2,0-.36S27.9,7,27.68,7a.77.77,0,0,0-.65.54c-.1.3.09.69.46.6a1.19,1.19,0,0,1-1.5.53,1.36,1.36,0,0,1-.77-1.48c.13-1.44,1.89-2,3.09-1.89a6,6,0,0,1,2.1.51c.67.3,1.29.7,1.92,1.06A9.17,9.17,0,0,0,36.24,8a7.33,7.33,0,0,0,4.13-.72,2.66,2.66,0,0,0,.06,2.46,1.86,1.86,0,0,0,2.14.8,1.38,1.38,0,0,0,.94-1.8.88.88,0,0,0-.87-.55c-.38,0-.51.24-.65.56,0,.09-.07.15-.17.18a.72.72,0,0,1-.2,0c-.06.08.24.25.3.28.36.15,1,0,1-.51a.72.72,0,0,1,.17,1,1.14,1.14,0,0,1-.87.57,1.5,1.5,0,0,1-1.66-1.37,2.49,2.49,0,0,1,.83-2.2,9,9,0,0,0,1.78-1.92,7.5,7.5,0,0,0,1-2.18,5.23,5.23,0,0,0,.19-1.09c0-.14,0-.33-.09-.42a.22.22,0,0,0-.31.09c-.12.16-.21.37-.32.54a10.75,10.75,0,0,1-.82,1.11,6.27,6.27,0,0,1-3.46,2.27.55.55,0,0,0-.83-.49c-.1,0-.21.14-.33.14a.66.66,0,0,1-.31-.24c-.19.1.23.71.3.78a1.12,1.12,0,0,0,1,.27c2-.22,3.54-1.83,4.6-3.37C43.1,5.5,39.54,8.47,36,7.44a3.33,3.33,0,0,1-2.46-2.8c-.17-1.41.48-3.13,2-3.42a1.82,1.82,0,0,1,2,.87,1.24,1.24,0,0,1,0,1.13c-.23.38-.79.57-1.07.13.49-.17.23-.81-.08-1-.06,0-.42-.21-.47-.1s.11.07.13.1,0,.19,0,.3a1,1,0,0,0,1.33,1.29,1.55,1.55,0,0,0,.48-2.22A2.29,2.29,0,0,0,35.59.8a2.93,2.93,0,0,0-2.23,2A2.65,2.65,0,0,0,31.87,1a2.42,2.42,0,0,0-2.35.25A1.54,1.54,0,0,0,29,3.38a1.21,1.21,0,0,0,1.11.43.87.87,0,0,0,.7-.85c0-.18-.22-.35-.16-.53s.33-.24,0-.18-.9.77-.42,1.08c-.37.24-.87-.11-1-.46a1.11,1.11,0,0,1,.28-1.08,1.92,1.92,0,0,1,2.08-.47A2.16,2.16,0,0,1,32.91,2.7a23.34,23.34,0,0,1,.33,2.42,3.64,3.64,0,0,0,1.66,2.26,17.62,17.62,0,0,1-3.82-1.82,5.92,5.92,0,0,0-4-.66,3.4,3.4,0,0,0-1.63.9c-.42.43-.7,1-1.08,1.45a3,3,0,0,1-2.44,1.28,1.34,1.34,0,0,1-1.22-1c-.14-.49.1-1.36.78-1.18-.36.3,0,.86.28,1,.06,0,.4.17.46.08S22,7.36,22,7.25s.15-.32.16-.48A.76.76,0,0,0,22,6.29.86.86,0,0,0,21.1,6a1.33,1.33,0,0,0-.78,1.81A1.76,1.76,0,0,0,22,9Z"
        transform="translate(-0.38 -0.77)"></path>
    <path class="cls-1"
        d="M66.32,9a3.59,3.59,0,0,1-2.8-1.59,1.67,1.67,0,0,1-1.29,1.71,1.38,1.38,0,0,1-1.68-.93,1,1,0,0,1,.06-.75c.08-.18.07-.2,0-.36S60.42,7,60.64,7a.77.77,0,0,1,.65.54c.1.3-.09.69-.46.6a1.19,1.19,0,0,0,1.5.53,1.36,1.36,0,0,0,.77-1.48C63,5.71,61.21,5.2,60,5.26a6,6,0,0,0-2.1.51c-.67.3-1.29.7-1.92,1.06A9.17,9.17,0,0,1,52.08,8a7.33,7.33,0,0,1-4.13-.72,2.66,2.66,0,0,1-.06,2.46,1.86,1.86,0,0,1-2.14.8,1.38,1.38,0,0,1-.94-1.8.88.88,0,0,1,.87-.55c.38,0,.51.24.65.56,0,.09.07.15.17.18a.72.72,0,0,0,.2,0c.06.08-.24.25-.3.28-.36.15-1,0-1-.51a.72.72,0,0,0-.17,1,1.14,1.14,0,0,0,.87.57,1.5,1.5,0,0,0,1.66-1.37,2.49,2.49,0,0,0-.83-2.2,9,9,0,0,1-1.78-1.92,7.5,7.5,0,0,1-1-2.18A5.22,5.22,0,0,1,44,1.48c0-.14,0-.33.09-.42a.22.22,0,0,1,.31.09c.12.16.21.37.32.54A10.75,10.75,0,0,0,45.5,2.8,6.27,6.27,0,0,0,49,5.07a.55.55,0,0,1,.83-.49c.1,0,.21.14.33.14a.66.66,0,0,0,.31-.24c.19.1-.23.71-.3.78a1.12,1.12,0,0,1-1,.27c-2-.22-3.54-1.83-4.6-3.37.74,3.34,4.31,6.31,7.8,5.28a3.33,3.33,0,0,0,2.46-2.8c.17-1.41-.48-3.13-2-3.42a1.82,1.82,0,0,0-2,.87,1.24,1.24,0,0,0,0,1.13c.23.38.79.57,1.07.13-.49-.17-.23-.81.08-1,.06,0,.42-.21.47-.1s-.11.07-.13.1,0,.19,0,.3A1,1,0,0,1,50.9,3.94a1.55,1.55,0,0,1-.48-2.22A2.29,2.29,0,0,1,52.73.8a2.93,2.93,0,0,1,2.23,2A2.65,2.65,0,0,1,56.45,1a2.42,2.42,0,0,1,2.35.25,1.54,1.54,0,0,1,.47,2.16,1.21,1.21,0,0,1-1.11.43.87.87,0,0,1-.7-.85c0-.18.22-.35.16-.53s-.33-.24,0-.18.9.77.42,1.08c.37.24.86-.11,1-.46a1.11,1.11,0,0,0-.28-1.08,1.92,1.92,0,0,0-2.08-.47A2.16,2.16,0,0,0,55.41,2.7a23.36,23.36,0,0,0-.33,2.42,3.64,3.64,0,0,1-1.66,2.26,17.61,17.61,0,0,0,3.82-1.82,5.92,5.92,0,0,1,4-.66,3.4,3.4,0,0,1,1.63.9c.42.43.7,1,1.08,1.45a3,3,0,0,0,2.44,1.28,1.34,1.34,0,0,0,1.22-1c.14-.49-.1-1.36-.78-1.18.36.3,0,.86-.28,1-.06,0-.4.17-.46.08s.17-.14.19-.25-.15-.32-.16-.48a.76.76,0,0,1,.15-.48A.86.86,0,0,1,67.22,6,1.33,1.33,0,0,1,68,7.8,1.76,1.76,0,0,1,66.32,9Z"
        transform="translate(-0.38 -0.77)"></path>
    <path class="cls-1" d="M61.33,3l26.6.26-26.6.26a.26.26,0,1,1,0-.52Z" transform="translate(-0.38 -0.77)"></path>
    <path class="cls-1" d="M.38,3.29,27,3a.26.26,0,1,1,0,.52h0Z" transform="translate(-0.38 -0.77)"></path>
</svg>